<svg xmlns="http://www.w3.org/2000/svg" xmlns:xlink="http://www.w3.org/1999/xlink" width="268" zoomAndPan="magnify" viewBox="0 0 200.87999 46.499999" height="62" preserveAspectRatio="xMidYMid meet" version="1.0"><defs><g/><clipPath id="cc4f960b69"><path d="M 1.007812 10 L 34.398438 10 L 34.398438 45.976562 L 1.007812 45.976562 Z M 1.007812 10 " clip-rule="nonzero"/></clipPath><clipPath id="662cf24e45"><path d="M 1.007812 0 L 34 0 L 34 31 L 1.007812 31 Z M 1.007812 0 " clip-rule="nonzero"/></clipPath><clipPath id="eff2fc69c2"><path d="M 178 6 L 199.753906 6 L 199.753906 39 L 178 39 Z M 178 6 " clip-rule="nonzero"/></clipPath></defs><g clip-path="url(#cc4f960b69)"><path fill="#000000" d="M 17.703125 45.976562 L 1.019531 30.867188 L 1.019531 10.183594 L 9.453125 10.183594 L 7.488281 13.726562 L 4.570312 13.726562 L 4.570312 29.285156 L 17.703125 41.183594 L 30.839844 29.285156 L 30.839844 13.726562 L 27.921875 13.726562 L 25.964844 10.183594 L 34.386719 10.183594 L 34.386719 30.867188 Z M 17.703125 45.976562 " fill-opacity="1" fill-rule="nonzero"/></g><g clip-path="url(#662cf24e45)"><path fill="#000000" d="M 1.578125 29.210938 L 17.703125 -0.0273438 L 33.832031 29.210938 L 30.757812 30.933594 L 17.703125 7.296875 L 4.671875 30.933594 Z M 1.578125 29.210938 " fill-opacity="1" fill-rule="nonzero"/></g><path fill="#000000" d="M 6.894531 34.308594 L 17.703125 14.691406 L 28.515625 34.308594 L 25.441406 36.03125 L 17.703125 22.027344 L 9.984375 36.03125 Z M 6.894531 34.308594 " fill-opacity="1" fill-rule="nonzero"/><g fill="#b81928" fill-opacity="1"><g transform="translate(43.77562, 38.585104)"><g><path d="M 21.421875 0 L 17.15625 0 C 16.8125 0 16.597656 -0.1875 16.515625 -0.5625 L 15.390625 -6.4375 L 8.21875 -6.4375 L 7.125 -0.5625 C 7.050781 -0.1875 6.835938 0 6.484375 0 L 2.171875 0 C 1.691406 0 1.519531 -0.226562 1.65625 -0.6875 L 8.34375 -31.65625 C 8.414062 -32.03125 8.640625 -32.21875 9.015625 -32.21875 L 14.625 -32.21875 C 15 -32.21875 15.226562 -32.03125 15.3125 -31.65625 L 22 -0.6875 C 22.070312 -0.226562 21.878906 0 21.421875 0 Z M 14.375 -11.125 L 11.796875 -25.171875 L 9.21875 -11.125 Z M 14.375 -11.125 "/></g></g></g><g fill="#b81928" fill-opacity="1"><g transform="translate(67.371693, 38.585104)"><g><path d="M 7.8125 -32.21875 L 12.328125 -32.21875 C 14.234375 -32.21875 15.675781 -31.726562 16.65625 -30.75 C 17.632812 -29.769531 18.125 -28.328125 18.125 -26.421875 L 18.125 -22.15625 C 18.125 -21.726562 17.910156 -21.515625 17.484375 -21.515625 L 13.296875 -21.515625 C 12.859375 -21.515625 12.640625 -21.726562 12.640625 -22.15625 L 12.640625 -25.296875 C 12.640625 -26.367188 12.101562 -26.90625 11.03125 -26.90625 L 9.109375 -26.90625 C 8.035156 -26.90625 7.5 -26.367188 7.5 -25.296875 L 7.5 -19.734375 L 17.078125 -16.59375 C 17.773438 -16.300781 18.125 -15.804688 18.125 -15.109375 L 18.125 -5.796875 C 18.125 -3.921875 17.632812 -2.484375 16.65625 -1.484375 C 15.675781 -0.492188 14.234375 0 12.328125 0 L 7.8125 0 C 5.9375 0 4.5 -0.492188 3.5 -1.484375 C 2.507812 -2.484375 2.015625 -3.921875 2.015625 -5.796875 L 2.015625 -10.03125 C 2.015625 -10.457031 2.226562 -10.671875 2.65625 -10.671875 L 6.84375 -10.671875 C 7.28125 -10.671875 7.5 -10.457031 7.5 -10.03125 L 7.5 -6.921875 C 7.5 -5.847656 8.035156 -5.3125 9.109375 -5.3125 L 11.03125 -5.3125 C 12.101562 -5.3125 12.640625 -5.847656 12.640625 -6.921875 L 12.640625 -12.28125 L 3.109375 -15.421875 C 2.378906 -15.671875 2.015625 -16.171875 2.015625 -16.921875 L 2.015625 -26.421875 C 2.015625 -28.328125 2.507812 -29.769531 3.5 -30.75 C 4.5 -31.726562 5.9375 -32.21875 7.8125 -32.21875 Z M 7.8125 -32.21875 "/></g></g></g><g fill="#b81928" fill-opacity="1"><g transform="translate(87.504861, 38.585104)"><g><path d="M 7.8125 -32.21875 L 12.328125 -32.21875 C 14.234375 -32.21875 15.675781 -31.726562 16.65625 -30.75 C 17.632812 -29.769531 18.125 -28.328125 18.125 -26.421875 L 18.125 -22.15625 C 18.125 -21.726562 17.910156 -21.515625 17.484375 -21.515625 L 13.296875 -21.515625 C 12.859375 -21.515625 12.640625 -21.726562 12.640625 -22.15625 L 12.640625 -25.296875 C 12.640625 -26.367188 12.101562 -26.90625 11.03125 -26.90625 L 9.109375 -26.90625 C 8.035156 -26.90625 7.5 -26.367188 7.5 -25.296875 L 7.5 -19.734375 L 17.078125 -16.59375 C 17.773438 -16.300781 18.125 -15.804688 18.125 -15.109375 L 18.125 -5.796875 C 18.125 -3.921875 17.632812 -2.484375 16.65625 -1.484375 C 15.675781 -0.492188 14.234375 0 12.328125 0 L 7.8125 0 C 5.9375 0 4.5 -0.492188 3.5 -1.484375 C 2.507812 -2.484375 2.015625 -3.921875 2.015625 -5.796875 L 2.015625 -10.03125 C 2.015625 -10.457031 2.226562 -10.671875 2.65625 -10.671875 L 6.84375 -10.671875 C 7.28125 -10.671875 7.5 -10.457031 7.5 -10.03125 L 7.5 -6.921875 C 7.5 -5.847656 8.035156 -5.3125 9.109375 -5.3125 L 11.03125 -5.3125 C 12.101562 -5.3125 12.640625 -5.847656 12.640625 -6.921875 L 12.640625 -12.28125 L 3.109375 -15.421875 C 2.378906 -15.671875 2.015625 -16.171875 2.015625 -16.921875 L 2.015625 -26.421875 C 2.015625 -28.328125 2.507812 -29.769531 3.5 -30.75 C 4.5 -31.726562 5.9375 -32.21875 7.8125 -32.21875 Z M 7.8125 -32.21875 "/></g></g></g><g fill="#b81928" fill-opacity="1"><g transform="translate(107.638029, 38.585104)"><g><path d="M 13.609375 -32.21875 L 17.328125 -32.21875 C 17.535156 -32.21875 17.71875 -32.132812 17.875 -31.96875 C 18.039062 -31.8125 18.125 -31.628906 18.125 -31.421875 L 18.125 -5.796875 C 18.125 -3.921875 17.632812 -2.484375 16.65625 -1.484375 C 15.675781 -0.492188 14.234375 0 12.328125 0 L 7.8125 0 C 5.9375 0 4.5 -0.492188 3.5 -1.484375 C 2.507812 -2.484375 2.015625 -3.921875 2.015625 -5.796875 L 2.015625 -31.421875 C 2.015625 -31.628906 2.09375 -31.8125 2.25 -31.96875 C 2.414062 -32.132812 2.601562 -32.21875 2.8125 -32.21875 L 6.6875 -32.21875 C 6.90625 -32.21875 7.09375 -32.132812 7.25 -31.96875 C 7.414062 -31.8125 7.5 -31.628906 7.5 -31.421875 L 7.5 -6.921875 C 7.5 -5.847656 8.035156 -5.3125 9.109375 -5.3125 L 11.203125 -5.3125 C 12.273438 -5.3125 12.8125 -5.847656 12.8125 -6.921875 L 12.8125 -31.421875 C 12.8125 -31.628906 12.890625 -31.8125 13.046875 -31.96875 C 13.210938 -32.132812 13.398438 -32.21875 13.609375 -32.21875 Z M 13.609375 -32.21875 "/></g></g></g><g fill="#b81928" fill-opacity="1"><g transform="translate(127.771198, 38.585104)"><g><path d="M 18.5625 -26.421875 L 18.5625 -16.59375 C 18.5625 -13.90625 17.582031 -12.132812 15.625 -11.28125 L 18.40625 -0.71875 C 18.539062 -0.238281 18.351562 0 17.84375 0 L 13.65625 0 C 13.28125 0 13.050781 -0.1875 12.96875 -0.5625 L 10.265625 -10.796875 L 7.5 -10.796875 L 7.5 -0.640625 C 7.5 -0.210938 7.28125 0 6.84375 0 L 2.65625 0 C 2.226562 0 2.015625 -0.210938 2.015625 -0.640625 L 2.015625 -31.578125 C 2.015625 -32.003906 2.226562 -32.21875 2.65625 -32.21875 L 12.765625 -32.21875 C 14.671875 -32.21875 16.113281 -31.726562 17.09375 -30.75 C 18.070312 -29.769531 18.5625 -28.328125 18.5625 -26.421875 Z M 7.5 -16.109375 L 11.484375 -16.109375 C 12.554688 -16.109375 13.09375 -16.644531 13.09375 -17.71875 L 13.09375 -25.296875 C 13.09375 -26.367188 12.554688 -26.90625 11.484375 -26.90625 L 7.5 -26.90625 Z M 7.5 -16.109375 "/></g></g></g><g fill="#b81928" fill-opacity="1"><g transform="translate(148.347296, 38.585104)"><g><path d="M 2.65625 -32.21875 L 6.84375 -32.21875 C 7.28125 -32.21875 7.5 -32.003906 7.5 -31.578125 L 7.5 -0.640625 C 7.5 -0.210938 7.28125 0 6.84375 0 L 2.65625 0 C 2.226562 0 2.015625 -0.210938 2.015625 -0.640625 L 2.015625 -31.578125 C 2.015625 -32.003906 2.226562 -32.21875 2.65625 -32.21875 Z M 2.65625 -32.21875 "/></g></g></g><g fill="#b81928" fill-opacity="1"><g transform="translate(157.850151, 38.585104)"><g><path d="M 18.125 -31.578125 L 18.125 -27.546875 C 18.125 -27.117188 17.910156 -26.90625 17.484375 -26.90625 L 7.5 -26.90625 L 7.5 -18.8125 L 15.0625 -18.8125 C 15.488281 -18.8125 15.703125 -18.597656 15.703125 -18.171875 L 15.703125 -14.140625 C 15.703125 -13.710938 15.488281 -13.5 15.0625 -13.5 L 7.5 -13.5 L 7.5 -0.640625 C 7.5 -0.210938 7.28125 0 6.84375 0 L 2.65625 0 C 2.226562 0 2.015625 -0.210938 2.015625 -0.640625 L 2.015625 -31.578125 C 2.015625 -32.003906 2.226562 -32.21875 2.65625 -32.21875 L 17.484375 -32.21875 C 17.910156 -32.21875 18.125 -32.003906 18.125 -31.578125 Z M 18.125 -31.578125 "/></g></g></g><g clip-path="url(#eff2fc69c2)"><g fill="#b81928" fill-opacity="1"><g transform="translate(177.98332, 38.585104)"><g><path d="M 16.4375 -32.21875 L 20.46875 -32.21875 C 20.757812 -32.21875 20.972656 -32.132812 21.109375 -31.96875 C 21.242188 -31.8125 21.242188 -31.585938 21.109375 -31.296875 L 13.734375 -13.375 L 13.734375 -0.8125 C 13.734375 -0.269531 13.46875 0 12.9375 0 L 9.0625 0 C 8.519531 0 8.25 -0.269531 8.25 -0.8125 L 8.25 -13.375 L 0.890625 -31.296875 C 0.773438 -31.585938 0.78125 -31.8125 0.90625 -31.96875 C 1.03125 -32.132812 1.238281 -32.21875 1.53125 -32.21875 L 5.5625 -32.21875 C 6.019531 -32.21875 6.328125 -32.003906 6.484375 -31.578125 L 11 -20.015625 L 15.515625 -31.578125 C 15.671875 -32.003906 15.976562 -32.21875 16.4375 -32.21875 Z M 16.4375 -32.21875 "/></g></g></g></g></svg>